{
 "metadata": {
  "language_info": {
   "codemirror_mode": {
    "name": "ipython",
    "version": 3
   },
   "file_extension": ".py",
   "mimetype": "text/x-python",
   "name": "python",
   "nbconvert_exporter": "python",
   "pygments_lexer": "ipython3",
   "version": "3.9.4"
  },
  "orig_nbformat": 4,
  "kernelspec": {
   "name": "python394jvsc74a57bd07812ea015bdcee6f23a998adcdd2ef97c151c0c241b7b7070987d9313e41299d",
   "display_name": "Python 3.9.4 64-bit ('3.9')",
   "language": "python"
  },
  "interpreter": {
   "hash": "7812ea015bdcee6f23a998adcdd2ef97c151c0c241b7b7070987d9313e41299d"
  }
 },
 "nbformat": 4,
 "nbformat_minor": 2,
 "cells": [
  {
   "cell_type": "code",
   "execution_count": 1,
   "metadata": {},
   "outputs": [
    {
     "output_type": "stream",
     "name": "stderr",
     "text": [
      "Input #0, wav, from '/var/folders/f6/mj4j3bbj0rn2c12j99dg0v4h0000gn/T/tmp86g68rif.wav':\n",
      "  Duration: 00:00:03.00, bitrate: 1411 kb/s\n",
      "    Stream #0:0: Audio: pcm_s16le ([1][0][0][0] / 0x0001), 44100 Hz, 2 channels, s16, 1411 kb/s\n",
      "\n",
      "Input #0, wav, from '/var/folders/f6/mj4j3bbj0rn2c12j99dg0v4h0000gn/T/tmptvvl6lfp.wav':\n",
      "  Duration: 00:00:03.00, bitrate: 1411 kb/s\n",
      "    Stream #0:0: Audio: pcm_s16le ([1][0][0][0] / 0x0001), 44100 Hz, 2 channels, s16, 1411 kb/s\n",
      "\n",
      "Input #0, wav, from '/var/folders/f6/mj4j3bbj0rn2c12j99dg0v4h0000gn/T/tmpuu7b7kou.wav':\n",
      "  Duration: 00:00:03.00, bitrate: 1411 kb/s\n",
      "    Stream #0:0: Audio: pcm_s16le ([1][0][0][0] / 0x0001), 44100 Hz, 2 channels, s16, 1411 kb/s\n",
      "\n"
     ]
    }
   ],
   "source": [
    "import numpy as np\n",
    "from pydub import AudioSegment\n",
    "from pydub.playback import play\n",
    "import cv2\n",
    "import time\n",
    "face_cascade = cv2.CascadeClassifier('haarcascade_frontalface_alt2.xml')\n",
    "eye_cascade = cv2.CascadeClassifier('haarcascade_eye_tree_eyeglasses.xml')\n",
    "cap = cv2.VideoCapture(0)\n",
    "delay = time.sleep(1)\n",
    "while 1:\n",
    "    ret, img = cap.read()\n",
    "    gray = cv2.cvtColor(img, cv2.COLOR_BGR2GRAY)\n",
    "    faces = face_cascade.detectMultiScale(gray,minNeighbors=5,scaleFactor=1.1,minSize=(25,25))\n",
    "    # delay\n",
    "    # if(len(faces)==0):\n",
    "    #     song = AudioSegment.from_mp3(\"ding.mp3\")\n",
    "    #     play(song)\n",
    "    #     delay\n",
    "    for (x,y,w,h) in faces:\n",
    "        cv2.rectangle(img,(x,y),(x+w,y+h),(255,0,0),3)\n",
    "        roi_gray = gray[y:y+h, x:x+w]\n",
    "        roi_color = img[y:y+h, x:x+w]  \n",
    "        eyes = eye_cascade.detectMultiScale(roi_gray,scaleFactor=1.1,minNeighbors=5,minSize=(30, 30))\n",
    "        delay\n",
    "        if(len(eyes)==0):\n",
    "            song = AudioSegment.from_mp3(\"ding.mp3\")\n",
    "            play(song)\n",
    "            delay\n",
    "        for (ex,ey,ew,eh) in eyes:\n",
    "            cv2.rectangle(roi_color,(ex,ey),(ex+ew,ey+eh),(255,255,0),3)\n",
    "    cv2.imshow('FaceDetect',img)\n",
    "    k = cv2.waitKey(30) & 0xff\n",
    "    if k == 27:\n",
    "        break\n",
    "cap.release()\n",
    "cv2.destroyAllWindows()\n"
   ]
  },
  {
   "cell_type": "code",
   "execution_count": 15,
   "metadata": {},
   "outputs": [
    {
     "output_type": "stream",
     "name": "stdout",
     "text": [
      "playing sound using  pydub\n",
      "Input #0, wav, from '/var/folders/f6/mj4j3bbj0rn2c12j99dg0v4h0000gn/T/tmprjqtdijx.wav':\n",
      "  Duration: 00:00:03.00, bitrate: 1411 kb/s\n",
      "    Stream #0:0: Audio: pcm_s16le ([1][0][0][0] / 0x0001), 44100 Hz, 2 channels, s16, 1411 kb/s\n",
      "\n"
     ]
    }
   ],
   "source": [
    "# # import required module\n",
    "# from pydub import AudioSegment\n",
    "# from pydub.playback import play\n",
    "  \n",
    "# # for playing mp3 file\n",
    "# song = AudioSegment.from_mp3(\"ding.mp3\")\n",
    "# print('playing sound using  pydub')\n",
    "# play(song)"
   ]
  },
  {
   "cell_type": "code",
   "execution_count": 1,
   "metadata": {},
   "outputs": [],
   "source": [
    "import cv2\n",
    "import os\n",
    "from keras.models import load_model\n",
    "import numpy as np\n",
    "from pygame import mixer\n",
    "import time\n",
    "\n",
    "mixer.init()\n",
    "sound = mixer.Sound('ding.mp3')\n",
    "\n",
    "face = cv2.CascadeClassifier('haarcascade_frontalface_alt.xml')\n",
    "leye = cv2.CascadeClassifier('haarcascade_lefteye_2splits.xml')\n",
    "reye = cv2.CascadeClassifier('haarcascade_righteye_2splits.xml')\n",
    "\n",
    "lbl=['Close','Open']\n",
    "\n",
    "model = load_model('models/cnncat2.h5')\n",
    "path = os.getcwd()\n",
    "cap = cv2.VideoCapture(0)\n",
    "font = cv2.FONT_HERSHEY_COMPLEX_SMALL\n",
    "count=0\n",
    "score=0\n",
    "thicc=2\n",
    "rpred=[99]\n",
    "lpred=[99]\n",
    "\n",
    "while(True):\n",
    "    ret, frame = cap.read()\n",
    "    height,width = frame.shape[:2]\n",
    "\n",
    "    gray = cv2.cvtColor(frame, cv2.COLOR_BGR2GRAY)\n",
    "\n",
    "    faces = face.detectMultiScale(gray,minNeighbors=5,scaleFactor=1.1,minSize=(25,25))\n",
    "    left_eye = leye.detectMultiScale(gray)\n",
    "    right_eye = reye.detectMultiScale(gray)\n",
    "\n",
    "    cv2.rectangle(frame, (0,height-50) , (200,height) , (0,0,0) , thickness=cv2.FILLED )\n",
    "\n",
    "    for (x,y,w,h) in faces:\n",
    "        cv2.rectangle(frame, (x,y) , (x+w,y+h) , (100,100,100) , 1 )\n",
    "        for (x,y,w,h) in right_eye:\n",
    "            r_eye=frame[y:y+h,x:x+w]\n",
    "            count=count+1\n",
    "            r_eye = cv2.cvtColor(r_eye,cv2.COLOR_BGR2GRAY)\n",
    "            r_eye = cv2.resize(r_eye,(24,24))\n",
    "            r_eye= r_eye/255\n",
    "            r_eye= r_eye.reshape(24,24,-1)\n",
    "            r_eye = np.expand_dims(r_eye,axis=0)\n",
    "            rpred = model.predict_classes(r_eye)\n",
    "            if(rpred[0]==1):\n",
    "                lbl='Open'\n",
    "            if(rpred[0]==0):\n",
    "                lbl='Closed'\n",
    "                break\n",
    "\n",
    "    for (x,y,w,h) in left_eye:\n",
    "        l_eye=frame[y:y+h,x:x+w]\n",
    "        count=count+1\n",
    "        l_eye = cv2.cvtColor(l_eye,cv2.COLOR_BGR2GRAY)\n",
    "        l_eye = cv2.resize(l_eye,(24,24))\n",
    "        l_eye= l_eye/255\n",
    "        l_eye=l_eye.reshape(24,24,-1)\n",
    "        l_eye = np.expand_dims(l_eye,axis=0)\n",
    "        lpred = model.predict_classes(l_eye)\n",
    "        if(lpred[0]==1):\n",
    "            lbl='Open'\n",
    "        if(lpred[0]==0):\n",
    "            lbl='Closed'\n",
    "        break\n",
    "    if(rpred[0]==0 and lpred[0]==0):\n",
    "        score=score+1\n",
    "        cv2.putText(frame,\"Closed\",(10,height-20), font, 1,(255,255,255),1,cv2.LINE_AA)\n",
    "    # if(rpred[0]==1 or lpred[0]==1):\n",
    "    else:\n",
    "        score=score-1\n",
    "        cv2.putText(frame,\"Open\",(10,height-20), font, 1,(255,255,255),1,cv2.LINE_AA)\n",
    "    if(score<0):\n",
    "        score=0\n",
    "    cv2.putText(frame,'Score:'+str(score),(100,height-20), font, 1,(255,255,255),1,cv2.LINE_AA)\n",
    "    if(score>15):\n",
    "        #person is feeling sleepy so we beep the alarm\n",
    "        cv2.imwrite(os.path.join(path,'image.jpg'),frame)\n",
    "        try:\n",
    "            sound.play()\n",
    "\n",
    "        except: # isplaying = False\n",
    "            pass\n",
    "        if(thicc<16):\n",
    "            thicc= thicc+2\n",
    "        else:\n",
    "            thicc=thicc-2\n",
    "            if(thicc<2):\n",
    "                thicc=2\n",
    "        cv2.rectangle(frame,(0,0),(width,height),(0,0,255),thicc)\n",
    "    cv2.imshow('frame',frame)\n",
    "    if cv2.waitKey(1) & 0xFF == ord('q'):\n",
    "        break\n",
    "cap.release()\n",
    "cv2.destroyAllWindows()"
   ]
  },
  {
   "cell_type": "code",
   "execution_count": null,
   "metadata": {},
   "outputs": [],
   "source": []
  }
 ]
}